<svg width="420" height="140" viewBox="0 0 420 140" fill="none" xmlns="http://www.w3.org/2000/svg">
  <rect width="420" height="140" rx="18" fill="#111827"/>
  <rect x="24" y="22" width="96" height="96" rx="16" fill="#F8FAFC"/>
  <path d="M72 43C63 31 42 37 42 58C42 78 56 96 64 106C68 111 72 107 72 100C72 107 77 111 81 106C89 96 102 78 102 58C102 37 81 31 72 43Z" fill="#B7791F"/>
  <path d="M50 34H60V42H50V34ZM36 44H44V52H36V44ZM52 54H60V62H52V54Z" fill="#F8FAFC"/>
  <text x="142" y="61" fill="#F8FAFC" font-family="Arial, Helvetica, sans-serif" font-size="28" font-weight="800" letter-spacing="1">PERFECT SMILE</text>
  <text x="142" y="95" fill="#D4AF37" font-family="Arial, Helvetica, sans-serif" font-size="22" font-weight="700" letter-spacing="4">DENTAL CLINIC</text>
  <path d="M142 73H378" stroke="#D4AF37" stroke-width="3" stroke-linecap="round"/>
</svg>
